<?xml version="1.0" standalone="no"?>
<!DOCTYPE svg PUBLIC "-//W3C//DTD SVG 20010904//EN"
 "http://www.w3.org/TR/2001/REC-SVG-20010904/DTD/svg10.dtd">
<svg version="1.0" xmlns="http://www.w3.org/2000/svg"
 width="148.000000pt" height="148.000000pt" viewBox="0 0 148.000000 148.000000"
 preserveAspectRatio="xMidYMid meet">

<g transform="translate(0.000000,148.000000) scale(0.100000,-0.100000)"
fill="#000000" stroke="none">
<path d="M90 934 c0 -29 118 -104 165 -104 14 0 25 -5 25 -11 0 -6 6 -9 14 -6
8 3 40 0 73 -8 212 -50 613 -43 801 14 18 5 40 7 49 4 11 -4 14 -2 9 5 -5 8
-2 10 8 6 31 -12 156 76 156 109 0 3 -28 -10 -62 -29 -144 -78 -337 -116 -583
-116 -250 0 -417 31 -567 105 -52 25 -88 38 -88 31z"/>
<path d="M90 590 c0 -31 119 -114 148 -102 9 3 13 1 9 -5 -4 -7 11 -13 41 -16
26 -3 85 -14 132 -23 123 -26 507 -26 635 0 50 10 111 21 136 25 82 13 199 84
199 121 0 4 -28 -7 -62 -26 -143 -77 -336 -116 -578 -116 -257 0 -420 30 -572
105 -49 24 -88 40 -88 37z"/>
<path d="M110 200 c26 -50 78 -84 189 -120 133 -44 224 -55 446 -54 218 0 322
14 456 59 96 33 144 66 169 115 23 44 16 50 -23 20 -61 -49 -216 -97 -380
-119 -113 -16 -365 -13 -482 4 -124 18 -281 68 -338 106 -23 16 -45 29 -50 29
-4 0 2 -18 13 -40z"/>
</g>
</svg>
